<svg xmlns="http://www.w3.org/2000/svg" xmlns:xlink="http://www.w3.org/1999/xlink" width="940" height="602.75"><rect width="940" height="602.75" rx="5" ry="5" class="a"/><svg y="0%" x="0%"><circle cx="20" cy="20" r="6" fill="#ff5f58"/><circle cx="40" cy="20" r="6" fill="#ffbd2e"/><circle cx="60" cy="20" r="6" fill="#18c132"/></svg><svg height="542.75" viewBox="0 0 90 54.275" width="900" x="15" xmlns="http://www.w3.org/2000/svg" xmlns:xlink="http://www.w3.org/1999/xlink" y="50"><style>@keyframes p{0%{transform:translateX(0)}1.3%{transform:translateX(-90px)}1.4%{transform:translateX(-270px)}11%{transform:translateX(-360px)}11.7%{transform:translateX(-450px)}12.5%{transform:translateX(-540px)}15.4%{transform:translateX(-630px)}17.1%{transform:translateX(-720px)}19.3%{transform:translateX(-810px)}20.3%{transform:translateX(-900px)}21.3%{transform:translateX(-990px)}22.5%{transform:translateX(-1080px)}24%{transform:translateX(-1170px)}27.9%{transform:translateX(-1440px)}31.3%{transform:translateX(-1800px)}37.2%{transform:translateX(-1890px)}37.3%{transform:translateX(-2430px)}43.6%{transform:translateX(-2790px)}45%{transform:translateX(-2880px)}45.1%{transform:translateX(-3150px)}45.2%{transform:translateX(-3330px)}60.9%{transform:translateX(-3420px)}61.4%{transform:translateX(-3510px)}62.1%{transform:translateX(-3600px)}63.6%{transform:translateX(-3690px)}64.4%{transform:translateX(-3780px)}66.8%{transform:translateX(-3870px)}70.7%{transform:translateX(-4230px)}70.9%{transform:translateX(-4410px)}85.4%{transform:translateX(-4500px)}86.1%{transform:translateX(-4590px)}87.7%{transform:translateX(-4860px)}87.8%{transform:translateX(-5220px)}87.9%{transform:translateX(-5400px)}to{transform:translateX(-5490px)}}.a{fill:#282d35}.h{fill:#a8cc8c;font-weight:700}.h,.i,.j{white-space:pre}.i{fill:#66c2cd;font-weight:700}.j{fill:#b9c0cb}.k{fill:#a8cc8c}.k,.l,.m{white-space:pre}.l{fill:#b9c0cb;font-weight:700}.m{fill:#66c2cd}</style><g font-family="Monaco,Consolas,Menlo,'Bitstream Vera Sans Mono','Powerline Symbols',monospace" font-size="1.67"><defs><symbol id="1"><path fill="#b9c0cb" d="M0 0h1v2.171H0z"/><text y="1.67" style="white-space:pre" fill="#282d35" font-weight="700">%</text></symbol><symbol id="2"><text y="1.67" class="h">➜</text><text x="3.006" y="1.67" class="i">demo</text></symbol><symbol id="3"><text y="1.67" class="h">➜</text><text x="3.006" y="1.67" class="i">demo</text><text x="8.016" y="1.67" class="j">eo</text></symbol><symbol id="4"><text y="1.67" class="h">➜</text><text x="3.006" y="1.67" class="i">demo</text><text x="8.016" y="1.67" class="j">eo</text><text x="11.022" y="1.67" class="j">g</text></symbol><symbol id="5"><text y="1.67" class="h">➜</text><text x="3.006" y="1.67" class="i">demo</text><text x="8.016" y="1.67" class="j">eo</text><text x="11.022" y="1.67" class="j">g</text><text x="13.026" y="1.67" class="j">hello</text></symbol><symbol id="6"><text y="1.67" class="k">?</text><text x="2.004" y="1.67" class="l">Please</text><text x="9.018" y="1.67" class="l">select</text><text x="16.032" y="1.67" class="l">the</text><text x="20.04" y="1.67" class="l">type</text><text x="25.05" y="1.67" class="l">of</text><text x="28.056" y="1.67" class="l">plugin</text><text x="35.07" y="1.67" class="l">you</text><text x="39.078" y="1.67" class="l">want</text><text x="44.088" y="1.67" class="l">to</text><text x="47.094" y="1.67" class="l">create?</text><text x="55.11" y="1.67" class="j">(Use</text><text x="60.12" y="1.67" class="j">arrow</text><text x="66.132" y="1.67" class="j">keys)</text></symbol><symbol id="7"><text y="1.67" class="m">❯</text><text x="2.004" y="1.67" class="m">Feature</text></symbol><symbol id="8"><text x="2.004" y="1.67" class="j">UI</text></symbol><symbol id="9"><text x="2.004" y="1.67" class="j">System</text></symbol><symbol id="10"><text y="1.67" class="k">?</text><text x="2.004" y="1.67" class="l">Please</text><text x="9.018" y="1.67" class="l">select</text><text x="16.032" y="1.67" class="l">the</text><text x="20.04" y="1.67" class="l">type</text><text x="25.05" y="1.67" class="l">of</text><text x="28.056" y="1.67" class="l">plugin</text><text x="35.07" y="1.67" class="l">you</text><text x="39.078" y="1.67" class="l">want</text><text x="44.088" y="1.67" class="l">to</text><text x="47.094" y="1.67" class="l">create?</text><text x="55.11" y="1.67" class="m">Feature</text></symbol><symbol id="11"><text y="1.67" class="k">?</text><text x="2.004" y="1.67" class="l">Please</text><text x="9.018" y="1.67" class="l">select</text><text x="16.032" y="1.67" class="l">the</text><text x="20.04" y="1.67" class="l">template</text><text x="29.058" y="1.67" class="l">of</text><text x="32.064" y="1.67" class="l">plugin</text><text x="39.078" y="1.67" class="l">you</text><text x="43.086" y="1.67" class="l">want</text><text x="48.096" y="1.67" class="l">to</text><text x="51.102" y="1.67" class="l">create?</text><text x="59.118" y="1.67" class="j">(Use</text><text x="64.128" y="1.67" class="j">arrow</text><text x="70.14" y="1.67" class="j">keys)</text></symbol><symbol id="12"><text y="1.67" class="m">❯</text><text x="2.004" y="1.67" class="m">Push</text></symbol><symbol id="13"><text x="2.004" y="1.67" class="j">Export-Openapi</text></symbol><symbol id="14"><text y="1.67" class="k">?</text><text x="2.004" y="1.67" class="l">Please</text><text x="9.018" y="1.67" class="l">select</text><text x="16.032" y="1.67" class="l">the</text><text x="20.04" y="1.67" class="l">template</text><text x="29.058" y="1.67" class="l">of</text><text x="32.064" y="1.67" class="l">plugin</text><text x="39.078" y="1.67" class="l">you</text><text x="43.086" y="1.67" class="l">want</text><text x="48.096" y="1.67" class="l">to</text><text x="51.102" y="1.67" class="l">create?</text><text x="59.118" y="1.67" class="m">Push</text></symbol><symbol id="15"><text y="1.67" class="j">Template</text><text x="9.018" y="1.67" class="j">files</text><text x="15.03" y="1.67" class="j">of</text><text x="18.036" y="1.67" class="j">module</text><text x="25.05" y="1.67" class="j">eoapi-hello</text><text x="37.074" y="1.67" class="j">is</text><text x="40.08" y="1.67" class="j">generated.</text></symbol><symbol id="16"><text y="1.67" class="h">➜</text><text x="3.006" y="1.67" class="i">demo</text><text x="8.016" y="1.67" class="j">cd</text></symbol><symbol id="17"><text y="1.67" class="h">➜</text><text x="3.006" y="1.67" class="i">demo</text><text x="8.016" y="1.67" class="j">cd</text><text x="11.022" y="1.67" class="j">eoapi-hello</text></symbol><symbol id="18"><text y="1.67" class="h">➜</text><text x="3.006" y="1.67" class="i">eoapi-hello</text></symbol><symbol id="19"><text y="1.67" class="h">➜</text><text x="3.006" y="1.67" class="i">eoapi-hello</text><text x="15.03" y="1.67" class="j">ls</text></symbol><symbol id="20"><text y="1.67" class="j">README.md</text><text x="17.034" y="1.67" class="j">package.json</text><text x="34.068" y="1.67" class="j">rollup.config.ts</text><text x="51.102" y="1.67" class="i">src</text><text x="68.136" y="1.67" class="j">tsconfig.json</text></symbol><symbol id="a"><path fill="transparent" d="M0 0h90v26H0z"/></symbol><symbol id="b"><path fill="#6f7683" d="M0 0h1.102v2.171H0z"/></symbol></defs><path class="a" d="M0 0h90v54.275H0z"/><g style="animation-duration:11.465461s;animation-iteration-count:infinite;animation-name:p;animation-timing-function:steps(1,end)"><svg width="5580"><svg><use xlink:href="#a"/><use xlink:href="#b" x="-.004"/></svg><svg x="90"><use xlink:href="#a"/><use xlink:href="#b" x="-.004" y="4.317"/><use xlink:href="#1"/></svg><svg x="180"><use xlink:href="#a"/><use xlink:href="#b" x="7.996" y="4.317"/><use xlink:href="#1"/><use xlink:href="#2" y="4.342"/></svg><svg x="270"><use xlink:href="#a"/><use xlink:href="#b" x="7.996" y="4.317"/><use xlink:href="#1"/><use xlink:href="#2" y="4.342"/></svg><svg x="360"><use xlink:href="#a"/><use xlink:href="#b" x="8.996" y="4.317"/><use xlink:href="#1"/><text y="6.012" class="h">➜</text><text x="3.006" y="6.012" class="i">demo</text><text x="8.016" y="6.012" class="j">e</text></svg><svg x="450"><use xlink:href="#a"/><use xlink:href="#b" x="9.996" y="4.317"/><use xlink:href="#1"/><use xlink:href="#3" y="4.342"/></svg><svg x="540"><use xlink:href="#a"/><use xlink:href="#b" x="10.996" y="4.317"/><use xlink:href="#1"/><use xlink:href="#3" y="4.342"/></svg><svg x="630"><use xlink:href="#a"/><use xlink:href="#b" x="11.996" y="4.317"/><use xlink:href="#1"/><use xlink:href="#4" y="4.342"/></svg><svg x="720"><use xlink:href="#a"/><use xlink:href="#b" x="12.996" y="4.317"/><use xlink:href="#1"/><use xlink:href="#4" y="4.342"/></svg><svg x="810"><use xlink:href="#a"/><use xlink:href="#b" x="13.996" y="4.317"/><use xlink:href="#1"/><text y="6.012" class="h">➜</text><text x="3.006" y="6.012" class="i">demo</text><text x="8.016" y="6.012" class="j">eo</text><text x="11.022" y="6.012" class="j">g</text><text x="13.026" y="6.012" class="j">h</text></svg><svg x="900"><use xlink:href="#a"/><use xlink:href="#b" x="14.996" y="4.317"/><use xlink:href="#1"/><text y="6.012" class="h">➜</text><text x="3.006" y="6.012" class="i">demo</text><text x="8.016" y="6.012" class="j">eo</text><text x="11.022" y="6.012" class="j">g</text><text x="13.026" y="6.012" class="j">he</text></svg><svg x="990"><use xlink:href="#a"/><use xlink:href="#b" x="15.996" y="4.317"/><use xlink:href="#1"/><text y="6.012" class="h">➜</text><text x="3.006" y="6.012" class="i">demo</text><text x="8.016" y="6.012" class="j">eo</text><text x="11.022" y="6.012" class="j">g</text><text x="13.026" y="6.012" class="j">hel</text></svg><svg x="1080"><use xlink:href="#a"/><use xlink:href="#b" x="16.996" y="4.317"/><use xlink:href="#1"/><text y="6.012" class="h">➜</text><text x="3.006" y="6.012" class="i">demo</text><text x="8.016" y="6.012" class="j">eo</text><text x="11.022" y="6.012" class="j">g</text><text x="13.026" y="6.012" class="j">hell</text></svg><svg x="1170"><use xlink:href="#a"/><use xlink:href="#b" x="17.996" y="4.317"/><use xlink:href="#1"/><use xlink:href="#5" y="4.342"/></svg><svg x="1260"><use xlink:href="#a"/><use xlink:href="#b" x="17.996" y="4.317"/><use xlink:href="#1"/><use xlink:href="#5" y="4.342"/></svg><svg x="1350"><use xlink:href="#a"/><use xlink:href="#b" x="-.004" y="6.488"/><use xlink:href="#1"/><use xlink:href="#5" y="4.342"/></svg><svg x="1440"><use xlink:href="#a"/><use xlink:href="#b" x="-.004" y="6.488"/><use xlink:href="#1"/><use xlink:href="#5" y="4.342"/></svg><svg x="1530"><use xlink:href="#a"/><use xlink:href="#1"/><use xlink:href="#5" y="4.342"/></svg><svg x="1620"><use xlink:href="#a"/><use xlink:href="#1"/><use xlink:href="#5" y="4.342"/><use xlink:href="#6" y="6.513"/><use xlink:href="#7" y="8.684"/><use xlink:href="#8" y="10.855"/><use xlink:href="#9" y="13.026"/></svg><svg x="1710"><use xlink:href="#a"/><use xlink:href="#1"/><use xlink:href="#5" y="4.342"/><use xlink:href="#6" y="6.513"/><use xlink:href="#7" y="8.684"/><use xlink:href="#8" y="10.855"/><use xlink:href="#9" y="13.026"/></svg><svg x="1800"><use xlink:href="#a"/><use xlink:href="#1"/><use xlink:href="#5" y="4.342"/><use xlink:href="#6" y="6.513"/><use xlink:href="#7" y="8.684"/><use xlink:href="#8" y="10.855"/><use xlink:href="#9" y="13.026"/></svg><svg x="1890"><use xlink:href="#a"/><use xlink:href="#1"/><use xlink:href="#5" y="4.342"/></svg><svg x="1980"><use xlink:href="#a"/><use xlink:href="#1"/><use xlink:href="#5" y="4.342"/><use xlink:href="#10" y="6.513"/></svg><svg x="2070"><use xlink:href="#a"/><use xlink:href="#1"/><use xlink:href="#5" y="4.342"/><use xlink:href="#10" y="6.513"/></svg><svg x="2160"><use xlink:href="#a"/><use xlink:href="#b" x="-.004" y="8.659"/><use xlink:href="#1"/><use xlink:href="#5" y="4.342"/><use xlink:href="#10" y="6.513"/></svg><svg x="2250"><use xlink:href="#a"/><use xlink:href="#1"/><use xlink:href="#5" y="4.342"/><use xlink:href="#10" y="6.513"/></svg><svg x="2340"><use xlink:href="#a"/><use xlink:href="#1"/><use xlink:href="#5" y="4.342"/><use xlink:href="#10" y="6.513"/><use xlink:href="#11" y="8.684"/><use xlink:href="#12" y="10.855"/><use xlink:href="#13" y="13.026"/></svg><svg x="2430"><use xlink:href="#a"/><use xlink:href="#1"/><use xlink:href="#5" y="4.342"/><use xlink:href="#10" y="6.513"/><use xlink:href="#11" y="8.684"/><use xlink:href="#12" y="10.855"/><use xlink:href="#13" y="13.026"/></svg><svg x="2520"><use xlink:href="#a"/><use xlink:href="#1"/><use xlink:href="#5" y="4.342"/><use xlink:href="#10" y="6.513"/></svg><svg x="2610"><use xlink:href="#a"/><use xlink:href="#1"/><use xlink:href="#5" y="4.342"/><use xlink:href="#10" y="6.513"/><use xlink:href="#14" y="8.684"/></svg><svg x="2700"><use xlink:href="#a"/><use xlink:href="#1"/><use xlink:href="#5" y="4.342"/><use xlink:href="#10" y="6.513"/><use xlink:href="#14" y="8.684"/></svg><svg x="2790"><use xlink:href="#a"/><use xlink:href="#b" x="-.004" y="10.83"/><use xlink:href="#1"/><use xlink:href="#5" y="4.342"/><use xlink:href="#10" y="6.513"/><use xlink:href="#14" y="8.684"/></svg><svg x="2880"><use xlink:href="#a"/><use xlink:href="#b" x="-.004" y="13.001"/><use xlink:href="#1"/><use xlink:href="#5" y="4.342"/><use xlink:href="#10" y="6.513"/><use xlink:href="#14" y="8.684"/><use xlink:href="#15" y="10.855"/></svg><svg x="2970"><use xlink:href="#a"/><use xlink:href="#b" x="-.004" y="13.001"/><use xlink:href="#1"/><use xlink:href="#5" y="4.342"/><use xlink:href="#10" y="6.513"/><use xlink:href="#14" y="8.684"/><use xlink:href="#15" y="10.855"/></svg><svg x="3060"><use xlink:href="#a"/><use xlink:href="#b" x="-.004" y="17.343"/><use xlink:href="#1"/><use xlink:href="#5" y="4.342"/><use xlink:href="#10" y="6.513"/><use xlink:href="#14" y="8.684"/><use xlink:href="#15" y="10.855"/><use xlink:href="#1" y="13.026"/></svg><svg x="3150"><use xlink:href="#a"/><use xlink:href="#b" x="-.004" y="17.343"/><use xlink:href="#1"/><use xlink:href="#5" y="4.342"/><use xlink:href="#10" y="6.513"/><use xlink:href="#14" y="8.684"/><use xlink:href="#15" y="10.855"/><use xlink:href="#1" y="13.026"/></svg><svg x="3240"><use xlink:href="#a"/><use xlink:href="#b" x="7.996" y="17.343"/><use xlink:href="#1"/><use xlink:href="#5" y="4.342"/><use xlink:href="#10" y="6.513"/><use xlink:href="#14" y="8.684"/><use xlink:href="#15" y="10.855"/><use xlink:href="#1" y="13.026"/><use xlink:href="#2" y="17.368"/></svg><svg x="3330"><use xlink:href="#a"/><use xlink:href="#b" x="7.996" y="17.343"/><use xlink:href="#1"/><use xlink:href="#5" y="4.342"/><use xlink:href="#10" y="6.513"/><use xlink:href="#14" y="8.684"/><use xlink:href="#15" y="10.855"/><use xlink:href="#1" y="13.026"/><use xlink:href="#2" y="17.368"/></svg><svg x="3420"><use xlink:href="#a"/><use xlink:href="#b" x="8.996" y="17.343"/><use xlink:href="#1"/><use xlink:href="#5" y="4.342"/><use xlink:href="#10" y="6.513"/><use xlink:href="#14" y="8.684"/><use xlink:href="#15" y="10.855"/><use xlink:href="#1" y="13.026"/><text y="19.038" class="h">➜</text><text x="3.006" y="19.038" class="i">demo</text><text x="8.016" y="19.038" class="j">c</text></svg><svg x="3510"><use xlink:href="#a"/><use xlink:href="#b" x="9.996" y="17.343"/><use xlink:href="#1"/><use xlink:href="#5" y="4.342"/><use xlink:href="#10" y="6.513"/><use xlink:href="#14" y="8.684"/><use xlink:href="#15" y="10.855"/><use xlink:href="#1" y="13.026"/><use xlink:href="#16" y="17.368"/></svg><svg x="3600"><use xlink:href="#a"/><use xlink:href="#b" x="10.996" y="17.343"/><use xlink:href="#1"/><use xlink:href="#5" y="4.342"/><use xlink:href="#10" y="6.513"/><use xlink:href="#14" y="8.684"/><use xlink:href="#15" y="10.855"/><use xlink:href="#1" y="13.026"/><use xlink:href="#16" y="17.368"/></svg><svg x="3690"><use xlink:href="#a"/><use xlink:href="#b" x="11.996" y="17.343"/><use xlink:href="#1"/><use xlink:href="#5" y="4.342"/><use xlink:href="#10" y="6.513"/><use xlink:href="#14" y="8.684"/><use xlink:href="#15" y="10.855"/><use xlink:href="#1" y="13.026"/><text y="19.038" class="h">➜</text><text x="3.006" y="19.038" class="i">demo</text><text x="8.016" y="19.038" class="j">cd</text><text x="11.022" y="19.038" class="j">h</text></svg><svg x="3780"><use xlink:href="#a"/><use xlink:href="#b" x="12.996" y="17.343"/><use xlink:href="#1"/><use xlink:href="#5" y="4.342"/><use xlink:href="#10" y="6.513"/><use xlink:href="#14" y="8.684"/><use xlink:href="#15" y="10.855"/><use xlink:href="#1" y="13.026"/><text y="19.038" class="h">➜</text><text x="3.006" y="19.038" class="i">demo</text><text x="8.016" y="19.038" class="j">cd</text><text x="11.022" y="19.038" class="j">he</text></svg><svg x="3870"><use xlink:href="#a"/><use xlink:href="#b" x="22.996" y="17.343"/><use xlink:href="#1"/><use xlink:href="#5" y="4.342"/><use xlink:href="#10" y="6.513"/><use xlink:href="#14" y="8.684"/><use xlink:href="#15" y="10.855"/><use xlink:href="#1" y="13.026"/><text y="19.038" class="h">➜</text><text x="3.006" y="19.038" class="i">demo</text><text x="8.016" y="19.038" class="j">cd</text><text x="11.022" y="19.038" class="j">eoapi-hello</text><text x="22.044" y="19.038" class="l">/</text></svg><svg x="3960"><use xlink:href="#a"/><use xlink:href="#b" x="21.996" y="17.343"/><use xlink:href="#1"/><use xlink:href="#5" y="4.342"/><use xlink:href="#10" y="6.513"/><use xlink:href="#14" y="8.684"/><use xlink:href="#15" y="10.855"/><use xlink:href="#1" y="13.026"/><use xlink:href="#17" y="17.368"/></svg><svg x="4050"><use xlink:href="#a"/><use xlink:href="#b" x="-.004" y="19.514"/><use xlink:href="#1"/><use xlink:href="#5" y="4.342"/><use xlink:href="#10" y="6.513"/><use xlink:href="#14" y="8.684"/><use xlink:href="#15" y="10.855"/><use xlink:href="#1" y="13.026"/><use xlink:href="#17" y="17.368"/></svg><svg x="4140"><use xlink:href="#a"/><use xlink:href="#b" x="-.004" y="19.514"/><use xlink:href="#1"/><use xlink:href="#5" y="4.342"/><use xlink:href="#10" y="6.513"/><use xlink:href="#14" y="8.684"/><use xlink:href="#15" y="10.855"/><use xlink:href="#1" y="13.026"/><use xlink:href="#17" y="17.368"/></svg><svg x="4230"><use xlink:href="#a"/><use xlink:href="#b" x="-.004" y="23.856"/><use xlink:href="#1"/><use xlink:href="#5" y="4.342"/><use xlink:href="#10" y="6.513"/><use xlink:href="#14" y="8.684"/><use xlink:href="#15" y="10.855"/><use xlink:href="#1" y="13.026"/><use xlink:href="#17" y="17.368"/><use xlink:href="#1" y="19.539"/></svg><svg x="4320"><use xlink:href="#a"/><use xlink:href="#b" x="14.996" y="23.856"/><use xlink:href="#1"/><use xlink:href="#5" y="4.342"/><use xlink:href="#10" y="6.513"/><use xlink:href="#14" y="8.684"/><use xlink:href="#15" y="10.855"/><use xlink:href="#1" y="13.026"/><use xlink:href="#17" y="17.368"/><use xlink:href="#1" y="19.539"/><use xlink:href="#18" y="23.881"/></svg><svg x="4410"><use xlink:href="#a"/><use xlink:href="#b" x="14.996" y="23.856"/><use xlink:href="#1"/><use xlink:href="#5" y="4.342"/><use xlink:href="#10" y="6.513"/><use xlink:href="#14" y="8.684"/><use xlink:href="#15" y="10.855"/><use xlink:href="#1" y="13.026"/><use xlink:href="#17" y="17.368"/><use xlink:href="#1" y="19.539"/><use xlink:href="#18" y="23.881"/></svg><svg x="4500"><use xlink:href="#a"/><use xlink:href="#b" x="15.996" y="23.856"/><use xlink:href="#1"/><use xlink:href="#5" y="4.342"/><use xlink:href="#10" y="6.513"/><use xlink:href="#14" y="8.684"/><use xlink:href="#15" y="10.855"/><use xlink:href="#1" y="13.026"/><use xlink:href="#17" y="17.368"/><use xlink:href="#1" y="19.539"/><text y="25.551" class="h">➜</text><text x="3.006" y="25.551" class="i">eoapi-hello</text><text x="15.03" y="25.551" class="j">l</text></svg><svg x="4590"><use xlink:href="#a"/><use xlink:href="#b" x="16.996" y="23.856"/><use xlink:href="#1"/><use xlink:href="#5" y="4.342"/><use xlink:href="#10" y="6.513"/><use xlink:href="#14" y="8.684"/><use xlink:href="#15" y="10.855"/><use xlink:href="#1" y="13.026"/><use xlink:href="#17" y="17.368"/><use xlink:href="#1" y="19.539"/><use xlink:href="#19" y="23.881"/></svg><svg x="4680"><use xlink:href="#a"/><use xlink:href="#b" x="16.996" y="23.856"/><use xlink:href="#1"/><use xlink:href="#5" y="4.342"/><use xlink:href="#10" y="6.513"/><use xlink:href="#14" y="8.684"/><use xlink:href="#15" y="10.855"/><use xlink:href="#1" y="13.026"/><use xlink:href="#17" y="17.368"/><use xlink:href="#1" y="19.539"/><use xlink:href="#19" y="23.881"/></svg><svg x="4770"><use xlink:href="#a"/><use xlink:href="#b" x="-.004" y="26.027"/><use xlink:href="#1"/><use xlink:href="#5" y="4.342"/><use xlink:href="#10" y="6.513"/><use xlink:href="#14" y="8.684"/><use xlink:href="#15" y="10.855"/><use xlink:href="#1" y="13.026"/><use xlink:href="#17" y="17.368"/><use xlink:href="#1" y="19.539"/><use xlink:href="#19" y="23.881"/></svg><svg x="4860"><use xlink:href="#a"/><use xlink:href="#b" x="-.004" y="26.027"/><use xlink:href="#1"/><use xlink:href="#5" y="4.342"/><use xlink:href="#10" y="6.513"/><use xlink:href="#14" y="8.684"/><use xlink:href="#15" y="10.855"/><use xlink:href="#1" y="13.026"/><use xlink:href="#17" y="17.368"/><use xlink:href="#1" y="19.539"/><use xlink:href="#19" y="23.881"/></svg><svg x="4950"><use xlink:href="#a"/><use xlink:href="#b" x="-.004" y="28.198"/><use xlink:href="#1"/><use xlink:href="#5" y="4.342"/><use xlink:href="#10" y="6.513"/><use xlink:href="#14" y="8.684"/><use xlink:href="#15" y="10.855"/><use xlink:href="#1" y="13.026"/><use xlink:href="#17" y="17.368"/><use xlink:href="#1" y="19.539"/><use xlink:href="#19" y="23.881"/><use xlink:href="#20" y="26.052"/></svg><svg x="5040"><use xlink:href="#a"/><use xlink:href="#b" x="-.004" y="32.54"/><use xlink:href="#1"/><use xlink:href="#5" y="4.342"/><use xlink:href="#10" y="6.513"/><use xlink:href="#14" y="8.684"/><use xlink:href="#15" y="10.855"/><use xlink:href="#1" y="13.026"/><use xlink:href="#17" y="17.368"/><use xlink:href="#1" y="19.539"/><use xlink:href="#19" y="23.881"/><use xlink:href="#20" y="26.052"/><use xlink:href="#1" y="28.223"/></svg><svg x="5130"><use xlink:href="#a"/><use xlink:href="#b" x="-.004" y="32.54"/><use xlink:href="#1"/><use xlink:href="#5" y="4.342"/><use xlink:href="#10" y="6.513"/><use xlink:href="#14" y="8.684"/><use xlink:href="#15" y="10.855"/><use xlink:href="#1" y="13.026"/><use xlink:href="#17" y="17.368"/><use xlink:href="#1" y="19.539"/><use xlink:href="#19" y="23.881"/><use xlink:href="#20" y="26.052"/><use xlink:href="#1" y="28.223"/></svg><svg x="5220"><use xlink:href="#a"/><use xlink:href="#b" x="-.004" y="32.54"/><use xlink:href="#1"/><use xlink:href="#5" y="4.342"/><use xlink:href="#10" y="6.513"/><use xlink:href="#14" y="8.684"/><use xlink:href="#15" y="10.855"/><use xlink:href="#1" y="13.026"/><use xlink:href="#17" y="17.368"/><use xlink:href="#1" y="19.539"/><use xlink:href="#19" y="23.881"/><use xlink:href="#20" y="26.052"/><use xlink:href="#1" y="28.223"/></svg><svg x="5310"><use xlink:href="#a"/><use xlink:href="#b" x="14.996" y="32.54"/><use xlink:href="#1"/><use xlink:href="#5" y="4.342"/><use xlink:href="#10" y="6.513"/><use xlink:href="#14" y="8.684"/><use xlink:href="#15" y="10.855"/><use xlink:href="#1" y="13.026"/><use xlink:href="#17" y="17.368"/><use xlink:href="#1" y="19.539"/><use xlink:href="#19" y="23.881"/><use xlink:href="#20" y="26.052"/><use xlink:href="#1" y="28.223"/><use xlink:href="#18" y="32.565"/></svg><svg x="5400"><use xlink:href="#a"/><use xlink:href="#b" x="14.996" y="32.54"/><use xlink:href="#1"/><use xlink:href="#5" y="4.342"/><use xlink:href="#10" y="6.513"/><use xlink:href="#14" y="8.684"/><use xlink:href="#15" y="10.855"/><use xlink:href="#1" y="13.026"/><use xlink:href="#17" y="17.368"/><use xlink:href="#1" y="19.539"/><use xlink:href="#19" y="23.881"/><use xlink:href="#20" y="26.052"/><use xlink:href="#1" y="28.223"/><use xlink:href="#18" y="32.565"/></svg><svg x="5490"><use xlink:href="#a"/><use xlink:href="#b" x="-.004" y="34.711"/><use xlink:href="#1"/><use xlink:href="#5" y="4.342"/><use xlink:href="#10" y="6.513"/><use xlink:href="#14" y="8.684"/><use xlink:href="#15" y="10.855"/><use xlink:href="#1" y="13.026"/><use xlink:href="#17" y="17.368"/><use xlink:href="#1" y="19.539"/><use xlink:href="#19" y="23.881"/><use xlink:href="#20" y="26.052"/><use xlink:href="#1" y="28.223"/><use xlink:href="#18" y="32.565"/></svg></svg></g></g></svg></svg>